/* XPM */
static char *result[] = {
/* columns rows colors chars-per-pixel */
"64 64 11 1 ",
"  c black",
". c #101010",
"X c gray19",
"o c gray25",
"O c gray44",
"+ c gray56",
"@ c gray75",
"# c gray81",
"$ c #EFEFEF",
"% c white",
"& c None",
/* pixels */
"&&&&&&&&&&&&&&&&&&&&&&&&&&&&&&&&&&&&&&&&&&&&&&&&&&&&&&&&&&&&&&&&",
"&&&&&&&&&&&&&&&&&&&&&&&&&&&&&&&&&&&&&&&&&&&&&&&&&&&&&&&&&&&&&&&&",
"&&&&&&&&&&&&&&&&&&&&&&&&&&&&&&&&&&&&&&&&&&&&&&&&&&&&&&&&&&&&&&&&",
"&&&&&&&&&&&&&&&&&&&&&&&&&&&&&&&&&&&&&&&&&&&&&&&&&&&&&&&&&&&&&&&&",
"&&&&&&&&&&&&&&&&&&&&&&&&&&&&&&&&&&&&&&&&&&&&&&&&&&&&&&&&&&&&&&&&",
"&&&&&&&&&&&&&&&&&&&&&&&&&&&&&&&&&&&&&&&&&&&&&&&&&&&&&&&&&&&&&&&&",
"&&&&&&&&&&&&&&&&&&&&&&&&                &&&&&&&&&&&&&&&&&&&&&&&&",
"&&&&&&&&&&&&&&&&&&&&&&&&                &&&&&&&&&&&&&&&&&&&&&&&&",
"&&&&&&&&&&&&&&&&&&&&                        &&&&&&&&&&&&&&&&&&&&",
"&&&&&&&&&&&&&&&&&&&&                        &&&&&&&&&&&&&&&&&&&&",
"&&&&&&&&&&&&&&&&                                &&&&&&&&&&&&&&&&",
"&&&&&&&&&&&&&&&&                                &&&&&&&&&&&&&&&&",
"&&&&&&&&&&&&&&                                    &&&&&&&&&&&&&&",
"&&&&&&&&&&&&&&                                    &&&&&&&&&&&&&&",
"&&&&&&&&&&&&                                        &&&&&&&&&&&&",
"&&&&&&&&&&&&                                        &&&&&&&&&&&&",
"&&&&&&&&&&                                            &&&&&&&&&&",
"&&&&&&&&&&                                            &&&&&&&&&&",
"&&&&&&&&&&                                            &&&&&&&&&&",
"&&&&&&&&&&                                            &&&&&&&&&&",
"&&&&&&&&                                                &&&&&&&&",
"&&&&&&&&                                                &&&&&&&&",
"&&&&&&&&                                                &&&&&&&&",
"&&&&&&&&                                                &&&&&&&&",
"&&&&&&                                                    &&&&&&",
"&&&&&&                                                    &&&&&&",
"&&&&&&                                                    &&&&&&",
"&&&&&&                                                    &&&&&&",
"&&&&&&                                                    &&&&&&",
"&&&&&&                                                    &&&&&&",
"&&&&&&                                                    &&&&&&",
"&&&&&&                                                    &&&&&&",
"&&&&&&                                                    &&&&&&",
"&&&&&&                                                    &&&&&&",
"&&&&&&                                                    &&&&&&",
"&&&&&&oX.                                              .Xo&&&&&&",
"&&&&&&@+X                                              X+@&&&&&&",
"&&&&&&%@o                                              o@%&&&&&&",
"&&&&&&%@o                                              o@%&&&&&&",
"&&&&&&%#OX.                                          .XO#%&&&&&&",
"&&&&&&%$#+X                                          X+#$%&&&&&&",
"&&&&&&%%%@o                                          o@%%%&&&&&&",
"&&&&&&%%%@o                                          o@%%%&&&&&&",
"&&&&&&%%%#OX.                                      .XO#%%%&&&&&&",
"&&&&&&&&%$#+X                                      X+#$%&&&&&&&&",
"&&&&&&&&%%%@o                                      o@%%%&&&&&&&&",
"&&&&&&&&%%%@o                                      o@%%%&&&&&&&&",
"&&&&&&&&%%%#OX.                                  .XO#%%%&&&&&&&&",
"&&&&&&&&&&%$#+X                                  X+#$%&&&&&&&&&&",
"&&&&&&&&&&%%%#OX.                              .XO#%%%&&&&&&&&&&",
"&&&&&&&&&&&&%$#+X                              X+#$%&&&&&&&&&&&&",
"&&&&&&&&&&&&%%%#OooX.                      .XooO#%%%&&&&&&&&&&&&",
"&&&&&&&&&&&&&&%$#@@+X                      X+@@#$%&&&&&&&&&&&&&&",
"&&&&&&&&&&&&&&%%%%%#OooX.              .XooO#%%%%%&&&&&&&&&&&&&&",
"&&&&&&&&&&&&&&&&%%%$#@@+X              X+@@#$%%%&&&&&&&&&&&&&&&&",
"&&&&&&&&&&&&&&&&%%%%%%%#OooooooooooooooO#%%%%%%%&&&&&&&&&&&&&&&&",
"&&&&&&&&&&&&&&&&&&&&%%%$#@@@@@@@@@@@@@@#$%%%&&&&&&&&&&&&&&&&&&&&",
"&&&&&&&&&&&&&&&&&&&&%%%%%%%%%%%%%%%%%%%%%%%%&&&&&&&&&&&&&&&&&&&&",
"&&&&&&&&&&&&&&&&&&&&&&&&%%%%%%%%%%%%%%%%&&&&&&&&&&&&&&&&&&&&&&&&",
"&&&&&&&&&&&&&&&&&&&&&&&&%%%%%%%%%%%%%%%%&&&&&&&&&&&&&&&&&&&&&&&&",
"&&&&&&&&&&&&&&&&&&&&&&&&&&&&&&&&&&&&&&&&&&&&&&&&&&&&&&&&&&&&&&&&",
"&&&&&&&&&&&&&&&&&&&&&&&&&&&&&&&&&&&&&&&&&&&&&&&&&&&&&&&&&&&&&&&&",
"&&&&&&&&&&&&&&&&&&&&&&&&&&&&&&&&&&&&&&&&&&&&&&&&&&&&&&&&&&&&&&&&",
"&&&&&&&&&&&&&&&&&&&&&&&&&&&&&&&&&&&&&&&&&&&&&&&&&&&&&&&&&&&&&&&&"
};
